
        <svg xmlns="http://www.w3.org/2000/svg" xmlns:xlink="http://www.w3.org/1999/xlink" version="1.1" width="3300" 
        height="2384.5971794059055" viewBox="0 0 3300 2384.5971794059055">
			
			<g transform="scale(15) translate(10, 10)">
				<defs id="SvgjsDefs1978"><linearGradient id="SvgjsLinearGradient1983"><stop id="SvgjsStop1984" stop-color="#006838" offset="0"></stop><stop id="SvgjsStop1985" stop-color="#96cf24" offset="1"></stop></linearGradient></defs><g id="SvgjsG1979" featureKey="symbolFeature-0" transform="matrix(1.272264532248264,0,0,1.272264532248264,35.750637481484645,-13.994909854730903)" fill="url(#SvgjsLinearGradient1983)"><path xmlns="http://www.w3.org/2000/svg" d="M29.5,25.5c2.5,0,4.6-2.1,4.6-4.6s-2.1-4.6-4.6-4.6c-2.5,0-4.6,2.1-4.6,4.6S27,25.5,29.5,25.5z M27,58  c0,0.7,0.6,1.3,1.3,1.3c0.7,0,1.3-0.6,1.3-1.3s-0.6-1.3-1.3-1.3C27.6,56.7,27,57.3,27,58z M36.2,31.3c1.1,0,1.9-0.9,1.9-1.9  c0-1.1-0.9-1.9-1.9-1.9c-1.1,0-1.9,0.9-1.9,1.9C34.3,30.4,35.1,31.3,36.2,31.3z M21.1,48.6c2.5,0,4.6-2.1,4.6-4.6  c0-2.5-2.1-4.6-4.6-4.6s-4.6,2.1-4.6,4.6C16.6,46.5,18.6,48.6,21.1,48.6z M14.5,37.8c1.1,0,1.9-0.9,1.9-1.9c0-1.1-0.9-1.9-1.9-1.9  c-1.1,0-1.9,0.9-1.9,1.9C12.6,37,13.4,37.8,14.5,37.8z M13.8,42c0-0.7-0.6-1.3-1.3-1.3c-0.7,0-1.3,0.6-1.3,1.3s0.6,1.3,1.3,1.3  C13.2,43.3,13.8,42.7,13.8,42z M19.9,31.2c1.8,0,3.2-1.4,3.2-3.2s-1.4-3.2-3.2-3.2c-1.8,0-3.2,1.4-3.2,3.2S18.1,31.2,19.9,31.2z   M58.8,13.6c0.7,0,1.3-0.6,1.3-1.3c0-0.7-0.6-1.3-1.3-1.3c-0.7,0-1.3,0.6-1.3,1.3C57.5,13,58.1,13.6,58.8,13.6z M23.8,57.5  c0-3.1-2.5-5.6-5.6-5.6c-3.1,0-5.6,2.5-5.6,5.6s2.5,5.6,5.6,5.6C21.3,63.1,23.8,60.6,23.8,57.5z M79.9,33.9c2.5,0,4.6-2.1,4.6-4.6  s-2.1-4.6-4.6-4.6s-4.6,2.1-4.6,4.6S77.3,33.9,79.9,33.9z M69.6,65.5c0,1.8,1.4,3.2,3.2,3.2c1.8,0,3.2-1.4,3.2-3.2s-1.4-3.2-3.2-3.2  C71,62.3,69.6,63.7,69.6,65.5z M72.8,22.9c1.8,0,3.2-1.4,3.2-3.2c0-1.8-1.4-3.2-3.2-3.2c-1.8,0-3.2,1.4-3.2,3.2  C69.6,21.5,71,22.9,72.8,22.9z M65.7,31.2c1.8,0,3.2-1.4,3.2-3.2s-1.4-3.2-3.2-3.2c-1.8,0-3.2,1.4-3.2,3.2S63.9,31.2,65.7,31.2z   M77.2,42.5c0,3.1,2.5,5.6,5.6,5.6c3.1,0,5.6-2.5,5.6-5.6s-2.5-5.6-5.6-5.6C79.7,36.9,77.2,39.4,77.2,42.5z M74,42  c0-0.7-0.6-1.3-1.3-1.3c-0.7,0-1.3,0.6-1.3,1.3s0.6,1.3,1.3,1.3C73.4,43.3,74,42.7,74,42z M64.8,16.1c1.1,0,1.9-0.9,1.9-1.9  s-0.9-1.9-1.9-1.9c-1.1,0-1.9,0.9-1.9,1.9S63.8,16.1,64.8,16.1z M70.8,37.8c1.1,0,1.9-0.9,1.9-1.9c0-1.1-0.9-1.9-1.9-1.9  s-1.9,0.9-1.9,1.9C68.9,37,69.8,37.8,70.8,37.8z M31.4,34.5c0-1.8-1.4-3.2-3.2-3.2c-1.8,0-3.2,1.4-3.2,3.2s1.4,3.2,3.2,3.2  C30,37.7,31.4,36.3,31.4,34.5z M64.8,68.7c-1.1,0-1.9,0.9-1.9,1.9c0,1.1,0.9,1.9,1.9,1.9c1.1,0,1.9-0.9,1.9-1.9  C66.7,69.6,65.9,68.7,64.8,68.7z M58.3,76.4c-3.1,0-5.6,2.5-5.6,5.6s2.5,5.6,5.6,5.6c3.1,0,5.6-2.5,5.6-5.6S61.4,76.4,58.3,76.4z   M71.5,74.5c-2.5,0-4.6,2.1-4.6,4.6s2.1,4.6,4.6,4.6c2.5,0,4.6-2.1,4.6-4.6S74,74.5,71.5,74.5z M57.5,72.5c0,0.7,0.6,1.3,1.3,1.3  c0.7,0,1.3-0.6,1.3-1.3c0-0.7-0.6-1.3-1.3-1.3C58.1,71.3,57.5,71.8,57.5,72.5z M88.5,56.7c-0.7,0-1.3,0.6-1.3,1.3s0.6,1.3,1.3,1.3  c0.7,0,1.3-0.6,1.3-1.3S89.1,56.7,88.5,56.7z M86.5,62.2c-1.1,0-1.9,0.9-1.9,1.9c0,1.1,0.9,1.9,1.9,1.9c1.1,0,1.9-0.9,1.9-1.9  C88.4,63,87.6,62.2,86.5,62.2z M56.2,25.5c2.5,0,4.6-2.1,4.6-4.6s-2.1-4.6-4.6-4.6s-4.6,2.1-4.6,4.6S53.7,25.5,56.2,25.5z   M79.9,51.4c-2.5,0-4.6,2.1-4.6,4.6c0,2.5,2.1,4.6,4.6,4.6s4.6-2.1,4.6-4.6C84.4,53.5,82.4,51.4,79.9,51.4z M21.1,66.1  c-2.5,0-4.6,2.1-4.6,4.6s2.1,4.6,4.6,4.6s4.6-2.1,4.6-4.6S23.7,66.1,21.1,66.1z M81.1,68.8c-1.8,0-3.2,1.4-3.2,3.2s1.4,3.2,3.2,3.2  c1.8,0,3.2-1.4,3.2-3.2S82.9,68.8,81.1,68.8z M30.2,62.2c-1.1,0-1.9,0.9-1.9,1.9c0,1.1,0.9,1.9,1.9,1.9s1.9-0.9,1.9-1.9  C32.1,63,31.2,62.2,30.2,62.2z M35.3,68.8c-1.8,0-3.2,1.4-3.2,3.2s1.4,3.2,3.2,3.2c1.8,0,3.2-1.4,3.2-3.2S37.1,68.8,35.3,68.8z   M36.2,83.9c-1.1,0-1.9,0.9-1.9,1.9s0.9,1.9,1.9,1.9c1.1,0,1.9-0.9,1.9-1.9S37.2,83.9,36.2,83.9z M28.2,77.1c-1.8,0-3.2,1.4-3.2,3.2  c0,1.8,1.4,3.2,3.2,3.2c1.8,0,3.2-1.4,3.2-3.2C31.4,78.5,30,77.1,28.2,77.1z M41,27.5c0,0.7,0.6,1.3,1.3,1.3c0.7,0,1.3-0.6,1.3-1.3  c0-0.7-0.6-1.3-1.3-1.3C41.5,26.2,41,26.8,41,27.5z M48.3,17.9c0-3.1-2.5-5.6-5.6-5.6c-3.1,0-5.6,2.5-5.6,5.6s2.5,5.6,5.6,5.6  C45.8,23.6,48.3,21.1,48.3,17.9z M42.2,86.4c-0.7,0-1.3,0.6-1.3,1.3c0,0.7,0.6,1.3,1.3,1.3c0.7,0,1.3-0.6,1.3-1.3  C43.5,87,42.9,86.4,42.2,86.4z M44.8,74.5c-2.5,0-4.6,2.1-4.6,4.6s2.1,4.6,4.6,4.6s4.6-2.1,4.6-4.6S47.3,74.5,44.8,74.5z"></path></g><g id="SvgjsG1980" featureKey="nameFeature-0" transform="matrix(0.6104261069678236,0,0,0.6104261069678236,-1.455369250697669e-7,114.18984220723583)" fill="#ffffff"><path d="M18.52 40 l-7 0 l0 -29.88 l7 0 l0 29.88 z M30.2 20 c-0.82668 -1.6 -1.68 -3.0133 -2.56 -4.24 s-1.6933 -2.2667 -2.44 -3.12 c-0.88 -0.98668 -1.7467 -1.8267 -2.6 -2.52 l7.6 0 l0 9.88 z M7.52 10.04 c-1.2 0.72 -2.26 1.6467 -3.18 2.78 s-1.7 2.2333 -2.34 3.3 c-0.74668 1.2533 -1.4134 2.5466 -2 3.88 l0 -9.96 l7.52 0 z M49.04 19.16 c0.93332 0.24 1.82 0.66 2.66 1.26 s1.58 1.3267 2.22 2.18 s1.1467 1.8133 1.52 2.88 s0.56 2.1867 0.56 3.36 l0 11.16 l-7.32 0 l0 -11.72 l0 -9.2 c0.05332 0.02668 0.11332 0.04 0.18 0.04 s0.12668 0.01332 0.18 0.04 z M32.8 13.920000000000002 c1.2267 -0.53332 2.3732 -1.0867 3.4399 -1.66 s1.9867 -1.1 2.76 -1.58 c0.90668 -0.53332 1.7334 -1.0666 2.48 -1.6 l0 30.92 l-7 0 l0 -21.16 c0 -1.0133 -0.08668 -1.84 -0.26 -2.48 s-0.36664 -1.1467 -0.57996 -1.52 c-0.26668 -0.42668 -0.54668 -0.73336 -0.84 -0.92004 z M77.36 37.56 c0.93332 0 1.7733 -0.09332 2.52 -0.28 c-1.0933 1.0133 -2.3666 1.82 -3.82 2.42 s-3.02 0.9 -4.7 0.9 c-1.6533 0 -3.2066 -0.28668 -4.66 -0.86 s-2.72 -1.36 -3.8 -2.36 s-1.9333 -2.1733 -2.56 -3.52 s-0.94 -2.78 -0.94 -4.3 c0 -1.4667 0.26668 -2.84 0.8 -4.12 s1.26 -2.4067 2.18 -3.38 s2.0067 -1.76 3.26 -2.36 s2.5866 -0.94 4 -1.02 c-0.98668 1.12 -1.7067 2.3733 -2.16 3.76 s-0.68 2.9467 -0.68 4.68 c0 1.5467 0.27332 2.96 0.82 4.24 s1.3 2.38 2.26 3.3 s2.08 1.6333 3.36 2.14 s2.6533 0.76 4.12 0.76 z M75.32 30.04 c0.08 -0.42668 0.14672 -0.85332 0.20004 -1.28 s0.08 -0.86668 0.08 -1.32 c0 -1.7867 -0.22668 -3.4067 -0.68 -4.86 s-1.1733 -2.7533 -2.16 -3.9 c1.4133 0.08 2.7466 0.43332 4 1.06 s2.34 1.4467 3.26 2.46 s1.6467 2.18 2.18 3.5 s0.8 2.74 0.8 4.26 l0 0.08 l-7.68 0 z  M121.92 9.879999999999999 c1.5467 0 3.0733 0.3934 4.58 1.1801 s2.86 1.8667 4.06 3.24 s2.1667 2.9733 2.9 4.8 s1.1 3.78 1.1 5.86 c0 2.0533 -0.38668 3.9933 -1.16 5.82 s-1.7733 3.42 -3 4.78 s-2.6067 2.44 -4.14 3.24 s-3.0733 1.2 -4.62 1.2 c0.50668 -0.58668 1.04 -1.3867 1.6 -2.4 s1.0667 -2.1733 1.52 -3.48 s0.82664 -2.7334 1.12 -4.28 s0.44 -3.1734 0.44 -4.88 s-0.13332 -3.34 -0.4 -4.9 s-0.60668 -2.9933 -1.02 -4.3 s-0.88664 -2.46 -1.42 -3.46 s-1.0533 -1.8067 -1.56 -2.42 z M115.6 40.000078124 c-1.5467 0 -3.0734 -0.3934 -4.58 -1.1801 s-2.8534 -1.8667 -4.04 -3.24 s-2.1467 -2.9733 -2.88 -4.8 s-1.1 -3.78 -1.1 -5.86 c0 -2.0533 0.38668 -3.9933 1.16 -5.82 s1.7733 -3.42 3 -4.78 s2.6067 -2.44 4.14 -3.24 s3.0733 -1.2 4.62 -1.2 c-0.53332 0.61332 -1.0733 1.42 -1.62 2.42 s-1.0467 2.1533 -1.5 3.46 s-0.82664 2.7334 -1.12 4.28 s-0.44 3.1734 -0.44 4.88 s0.12668 3.34 0.38 4.9 s0.59332 2.9933 1.02 4.3 s0.89336 2.4667 1.4 3.48 s1.0267 1.8133 1.56 2.4 z M159.24 40 l-7.12 0 l0 -21.08 l7.12 0 l0 21.08 z M145.12 39.2 c-0.93332 -0.24 -1.82 -0.66 -2.66 -1.26 s-1.58 -1.3267 -2.22 -2.18 s-1.1467 -1.8133 -1.52 -2.88 s-0.56 -2.1867 -0.56 -3.36 l0 -10.64 l7.32 0 l0 11.2 l0 9.2 c-0.08 0 -0.2 -0.02668 -0.36 -0.08 z M179.84 18.56 l0 8.68 l-0.16 0 c-0.18668 -0.26668 -0.48668 -0.71336 -0.9 -1.34 s-0.96 -1.34 -1.64 -2.14 s-1.5067 -1.64 -2.48 -2.52 s-2.1133 -1.7067 -3.42 -2.48 l0 -0.2 l8.6 0 z M162.68 17.16 c1.0133 -0.53332 2.0533 -1.1467 3.12 -1.84 c0.90668 -0.61332 1.9067 -1.3533 3 -2.22 s2.1733 -1.86 3.24 -2.98 l0 13.32 l0 6.56 c0 0.93332 0.12668 1.78 0.38 2.54 s0.59332 1.4533 1.02 2.08 s0.90668 1.18 1.44 1.66 s1.08 0.89332 1.64 1.24 c1.3067 0.85332 2.8 1.5066 4.48 1.96 c-1.0667 0.18668 -2.1334 0.33336 -3.2 0.44004 c-0.93332 0.08 -1.94 0.10668 -3.02 0.08 s-2.1 -0.16 -3.06 -0.4 c-0.93332 -0.24 -1.8066 -0.68 -2.62 -1.32 s-1.52 -1.42 -2.12 -2.34 s-1.0733 -1.94 -1.42 -3.06 s-0.52 -2.2667 -0.52 -3.44 l0 -6.36 c0 -1.36 -0.12668 -2.4267 -0.38 -3.2 s-0.52664 -1.36 -0.81996 -1.76 c-0.34668 -0.48 -0.73336 -0.8 -1.16 -0.96 z M200.64000000000001 37.56 c0.93332 0 1.7733 -0.09332 2.52 -0.28 c-1.0933 1.0133 -2.3666 1.82 -3.82 2.42 s-3.02 0.9 -4.7 0.9 c-1.6533 0 -3.2066 -0.28668 -4.66 -0.86 s-2.72 -1.36 -3.8 -2.36 s-1.9333 -2.1733 -2.56 -3.52 s-0.94 -2.78 -0.94 -4.3 c0 -1.4667 0.26668 -2.84 0.8 -4.12 s1.26 -2.4067 2.18 -3.38 s2.0067 -1.76 3.26 -2.36 s2.5866 -0.94 4 -1.02 c-0.98668 1.12 -1.7067 2.3733 -2.16 3.76 s-0.68 2.9467 -0.68 4.68 c0 1.5467 0.27332 2.96 0.82 4.24 s1.3 2.38 2.26 3.3 s2.08 1.6333 3.36 2.14 s2.6533 0.76 4.12 0.76 z M198.6 30.04 c0.08 -0.42668 0.14672 -0.85332 0.20004 -1.28 s0.08 -0.86668 0.08 -1.32 c0 -1.7867 -0.22668 -3.4067 -0.68 -4.86 s-1.1733 -2.7533 -2.16 -3.9 c1.4133 0.08 2.7466 0.43332 4 1.06 s2.34 1.4467 3.26 2.46 s1.6467 2.18 2.18 3.5 s0.8 2.74 0.8 4.26 l0 0.08 l-7.68 0 z M227.12 19.32 c0.74668 0.61332 1.1599 1.38 1.2399 2.3 s-0.17332 1.74 -0.76 2.46 c-0.61332 0.74668 -1.3866 1.16 -2.32 1.24 s-1.7733 -0.18668 -2.52 -0.8 c-0.53332 -0.45332 -1.04 -0.73332 -1.52 -0.84 s-0.90668 -0.13336 -1.28 -0.08004 c-0.45332 0.05332 -0.85332 0.18664 -1.2 0.39996 c0.18668 -0.56 0.42668 -1.1067 0.72 -1.64 c0.26668 -0.45332 0.61336 -0.94664 1.04 -1.48 s0.97336 -1.0266 1.64 -1.48 c1.8933 -1.2533 3.5466 -1.28 4.96 -0.08 z M209.519921876 21.8 c0.82668 -0.21332 1.66 -0.5134 2.5 -0.90008 s1.5933 -0.78668 2.26 -1.2 s1.2067 -0.78664 1.62 -1.12 s0.62 -0.56664 0.62 -0.69996 l0 22 l-7 0 l0 -18.08 z  M272.36 33.32 c0 1.5467 0.33996 2.9268 1.02 4.14 s1.58 2.0733 2.7 2.58 l-3.6 0 c-1.5733 0 -2.8933 -0.21332 -3.96 -0.64 s-1.92 -0.96668 -2.56 -1.62 s-1.0933 -1.38 -1.36 -2.18 s-0.4 -1.56 -0.4 -2.28 c0 -1.52 -0.34668 -2.88 -1.04 -4.08 s-1.5733 -2.0533 -2.64 -2.56 l-0.04 0 c0.66668 -0.29332 1.28 -0.71332 1.84 -1.26 s1.04 -1.18 1.44 -1.9 s0.71332 -1.52 0.94 -2.4 s0.34 -1.8 0.34 -2.76 c0 -1.92 -0.42 -3.62 -1.26 -5.1 s-1.94 -2.5267 -3.3 -3.14 l3.64 0 c1.4933 0 2.78 0.26 3.86 0.78 s1.9667 1.1867 2.66 2 s1.2 1.7066 1.52 2.68 s0.48 1.9 0.48 2.78 s-0.12668 1.8067 -0.38 2.78 s-0.64 1.8733 -1.16 2.7 s-1.1667 1.5067 -1.94 2.04 s-1.6666 0.8 -2.68 0.8 l1.28 0 c0.72 0 1.3667 0.20668 1.94 0.62 s1.0533 0.94664 1.44 1.6 s0.68668 1.3733 0.9 2.16 s0.32 1.54 0.32 2.26 z M254.08 10.120000000000001 l0 29.88 l-6.96 0 l0 -29.88 l6.96 0 z M287.16 11.68 c0 0.53332 -0.1 1.0266 -0.3 1.48 s-0.47332 0.85332 -0.82 1.2 s-0.75336 0.62 -1.22 0.82 s-0.95336 0.3 -1.46 0.3 c-0.53332 0 -1.0333 -0.1 -1.5 -0.3 s-0.86668 -0.47332 -1.2 -0.82 s-0.6 -0.74668 -0.8 -1.2 s-0.3 -0.94664 -0.3 -1.48 c0 -0.50668 0.1 -0.99336 0.3 -1.46 s0.46668 -0.87336 0.8 -1.22 s0.73332 -0.62 1.2 -0.82 s0.96668 -0.3 1.5 -0.3 c0.50668 0 0.99336 0.1 1.46 0.3 s0.87336 0.47332 1.22 0.82 s0.62 0.75336 0.82 1.22 s0.3 0.95336 0.3 1.46 z M277.92 22.92 c0.29332 0.18668 0.57344 0.4934 0.84012 0.92008 c0.21332 0.37332 0.40664 0.88 0.57996 1.52 s0.26 1.4667 0.26 2.48 l0 12.16 l7 0 l0 -21.92 c-0.74668 0.53332 -1.5734 1.0666 -2.48 1.6 c-0.77332 0.48 -1.6933 1.0067 -2.76 1.58 s-2.2134 1.1266 -3.44 1.66 z M293 21.52 c1.0133 -0.13332 1.9667 -0.34 2.86 -0.62 s1.6866 -0.56668 2.38 -0.86 c0.77332 -0.32 1.4933 -0.68 2.16 -1.08 l0 21 l-7.4 0 l0 -18.44 z M307.04 19 c0.93332 0.24 1.82 0.66 2.66 1.26 s1.58 1.3267 2.22 2.18 s1.1467 1.8133 1.52 2.88 s0.56 2.1867 0.56 3.36 l0 11.28 l-7.32 0 l0 -11.84 l0 -9.2 c0.05332 0.02668 0.11332 0.04 0.18 0.04 s0.12668 0.01332 0.18 0.04 z M320.68 19 c0.93332 0.24 1.82 0.66 2.66 1.26 s1.58 1.3267 2.22 2.18 s1.1467 1.8133 1.52 2.88 s0.56 2.1867 0.56 3.36 l0 11.28 l-7.32 0 l0 -11.84 l0 -9.2 c0.05332 0.02668 0.11332 0.04 0.18 0.04 s0.12668 0.01332 0.18 0.04 z"></path></g>
			</g>
		</svg>
	